<?xml version="1.0" encoding="utf-8"?>
<!DOCTYPE svg PUBLIC "-//W3C//DTD SVG 1.1//EN" "http://www.w3.org/Graphics/SVG/1.1/DTD/svg11.dtd">
<svg version="1.1" xmlns="http://www.w3.org/2000/svg" xmlns:xlink="http://www.w3.org/1999/xlink" x="0px" y="0px" viewBox="0 0 1000 1000" enable-background="new 0 0 1000 1000" xml:space="preserve">
<defs><style>
path {fill:#0c4c75; }
</style>
</defs>
<g><g transform="translate(0.000000,511.000000) scale(0.100000,-0.100000)"><path d="M5533.9,4982.6c-261.4-135.6-175-517,117.9-517c347.9,0,371.5,501.3,25.5,542.6C5628.2,5014,5579.1,5006.2,5533.9,4982.6z"/><path d="M3762.7,4813.5c-176.9-117.9-173-355.8,7.9-465.9c180.9-112.1,406.9,17.7,406.9,233.9C4177.5,4799.8,3941.6,4933.4,3762.7,4813.5z"/><path d="M7008.2,3860.1c-98.3-98.3-116-184.8-60.9-306.7c31.4-72.7,57-100.3,123.8-129.7c106.1-49.1,141.5-49.1,241.8,0c104.2,49.2,147.4,125.8,147.4,255.6c0,92.4-7.9,110.1-76.7,178.9c-70.8,70.8-84.5,76.7-188.7,76.7S7077,3928.9,7008.2,3860.1z"/><path d="M4794.8,3797.2c-206.4-43.3-371.5-173-462-363.7c-47.2-98.3-57-143.5-57-275.2c0-300.8,135.6-638.9,324.4-811.9c163.2-149.4,322.4-178.9,497.3-90.4c131.7,64.9,226.1,175,320.4,371.5c241.8,497.3,143.5,947.5-245.7,1120.5C5054.2,3801.1,4908.8,3820.8,4794.8,3797.2z"/><path d="M2567.5,3636c-147.4-76.7-198.5-230-121.9-369.6c129.7-245.7,513.1-149.4,513.1,127.8C2958.7,3604.6,2752.3,3732.3,2567.5,3636z"/><path d="M7460.3,2417.2c-263.4-137.6-167.1-517,129.7-511.1c167.1,2,271.3,121.9,257.5,294.9c-7.9,121.9-76.7,208.4-188.7,239.8C7562.6,2466.4,7558.6,2466.4,7460.3,2417.2z"/><path d="M2298.2,2381.9c-21.6-7.9-64.9-43.3-92.4-78.6c-64.9-74.7-72.7-218.2-19.7-294.9c19.7-27.5,239.8-289,491.4-581.9c465.9-546.5,501.3-577.9,634.9-577.9c41.3,0,658.5,188.7,817.8,249.6c23.6,7.9,27.5-80.6,27.5-615.3v-623.1l-426.6,11.8c-338.1,7.9-444.3,5.9-507.2-15.7c-112.1-39.3-214.3-157.3-243.8-277.2c-23.6-96.3-17.7-127.8,202.5-1030.1c141.5-579.9,239.8-949.5,263.4-980.9c68.8-92.4,135.6-127.8,239.8-127.8c106.1,0,171,35.4,243.7,133.7c51.1,68.8,51.1,116-15.7,943.6c-29.5,344-49.1,629-47.2,631c3.9,2,281.1-33.4,615.3-76.7c591.7-80.6,609.4-82.6,633-129.7c59-127.8,438.4-1067.4,438.4-1089c0-13.8-74.7-351.9-167.1-750.9c-114-489.5-165.1-745-157.3-788.3c37.3-204.4,302.7-283.1,446.2-129.7c74.7,80.6,625.1,1552.9,625.1,1670.9c0,62.9-94.3,359.7-334.2,1045.8l-334.2,959.3V424v562.2l349.9-176.9L6330,630.4l638.9,31.5c351.9,17.7,658.5,35.4,684.1,41.3c23.6,3.9,70.8,33.4,106.2,64.9c51.1,45.2,62.9,72.7,70.8,161.2c7.9,96.3,2,116-45.2,171c-29.5,35.4-68.8,72.7-86.5,82.6c-19.6,9.8-308.6,35.4-642.8,59L6448,1285l-206.4,123.8c-884.6,526.8-1061.5,597.6-1435,574c-149.4-9.8-237.9-35.4-784.3-228L3405,1538.5l-430.5,416.7c-235.9,230-446.2,422.6-463.9,430.5C2463.3,2403.5,2347.4,2401.5,2298.2,2381.9z"/><path d="M4334.8-1278.4c-45.2-31.4-74.7-68.8-84.5-114c-13.8-51.1,39.3-467.8,210.3-1657.1c123.8-872.8,235.9-1604.1,247.7-1623.7c82.6-157.3,304.7-155.3,381.4,3.9c29.5,66.8,23.6,121.9-194.6,1663c-125.8,876.7-233.9,1613.9-243.8,1637.5C4604.1-1245,4448.8-1201.7,4334.8-1278.4z"/></g></g>
</svg>